<svg xmlns="http://www.w3.org/2000/svg">
    <defs>

        <symbol id="icon-search" viewBox="0 0 48 48">
            <path d="M18.9677 33.9353C22.716 33.9353 26.134 32.5476 28.7597 30.2714L42.4883 44L44 42.4883L30.2714 28.7597C32.5476 26.134 33.9353 22.716 33.9353 18.9677C33.9353 10.7012 27.2341 4 18.9677 4C10.7012 4 4 10.7012 4 18.9677C4 27.2341 10.7012 33.9353 18.9677 33.9353ZM18.9677 6.13824C26.042 6.13824 31.7971 11.8933 31.7971 18.9677C31.7971 26.042 26.042 31.7971 18.9677 31.7971C11.8933 31.7971 6.13824 26.042 6.13824 18.9677C6.13824 11.8933 11.8933 6.13824 18.9677 6.13824Z" fill="currentColor"/>
        </symbol>

        <symbol id="pdf-tool-ico" viewBox="0 0 24 24">
            <path d="M0 0h24v24H0V0z" fill="none"/>
            <path d="M20 2H8c-1.1 0-2 .9-2 2v12c0 1.1.9 2 2 2h12c1.1 0 2-.9 2-2V4c0-1.1-.9-2-2-2zm0 14H8V4h12v12zM4 6H2v14c0 1.1.9 2 2 2h14v-2H4V6zm12 6V9c0-.55-.45-1-1-1h-2v5h2c.55 0 1-.45 1-1zm-2-3h1v3h-1V9zm4 2h1v-1h-1V9h1V8h-2v5h1zm-8 0h1c.55 0 1-.45 1-1V9c0-.55-.45-1-1-1H9v5h1v-2zm0-2h1v1h-1V9z" fill="currentColor"/>
        </symbol>

        <symbol id="file-dock" viewBox="0 0 24 24">
          <path d="M8 16h8v2H8zm0-4h8v2H8zm6-10H6c-1.1 0-2 .9-2 2v16c0 1.1.89 2 1.99 2H18c1.1 0 2-.9 2-2V8l-6-6zm4 18H6V4h7v5h5v11z" fill="currentColor"/>
        </symbol>

        <symbol id="image-ico" viewBox="0 0 24 24">
         <path d="M19 5v14H5V5h14m0-2H5c-1.1 0-2 .9-2 2v14c0 1.1.9 2 2 2h14c1.1 0 2-.9 2-2V5c0-1.1-.9-2-2-2zm-4.86 8.86l-3 3.87L9 13.14 6 17h12l-3.86-5.14z" fill="currentColor"/>
        </symbol>





    </defs>
</svg>